<svg width="256" height="256" viewBox="0 0 256 256" fill="none" xmlns="http://www.w3.org/2000/svg">
  <rect width="256" height="256" rx="48" fill="#F7F5FF"/>
  <circle cx="128" cy="98" r="47" fill="#E9BC94"/>
  <path d="M79 96C79 59.5492 108.549 30 145 30H148C164.569 30 178 43.4315 178 60V87C178 114.062 156.062 136 129 136C101.938 136 80 114.062 80 87L79 96Z" fill="#4A376B"/>
  <path d="M49 236C57.3226 186.039 84.5317 159 128 159C171.468 159 198.677 186.039 207 236H49Z" fill="#B9A5FF"/>
  <path d="M97 153C105.242 168.566 115.575 176.349 128 176.349C140.425 176.349 150.758 168.566 159 153" stroke="#9C5F37" stroke-width="6" stroke-linecap="round"/>
</svg>
