<svg width="256" height="256" viewBox="0 0 256 256" fill="none" xmlns="http://www.w3.org/2000/svg">
  <rect width="256" height="256" rx="48" fill="#F3F7FF"/>
  <circle cx="128" cy="96" r="48" fill="#F6C7A7"/>
  <path d="M80 94C80 61.4152 106.415 35 139 35H142C158.569 35 172 48.4315 172 65V88C172 104.569 158.569 118 142 118H102C89.8497 118 80 108.15 80 96V94Z" fill="#243A63"/>
  <path d="M54 236C58.8721 183.182 88.6409 157 128 157C167.359 157 197.128 183.182 202 236H54Z" fill="#6DA7FF"/>
  <path d="M92 155C100.186 174.508 112.598 184.262 128 184.262C143.402 184.262 155.814 174.508 164 155" stroke="#D9885A" stroke-width="6" stroke-linecap="round"/>
</svg>
