<svg preserveAspectRatio="none" width="100%" height="100%" overflow="visible" style="display: block;" viewBox="0 0 200 200" fill="none" xmlns="http://www.w3.org/2000/svg">
<g id="QR_code_for_mobile_English_Wikipedia 1">
<path id="Vector" d="M21.6216 159.459V140.541H59.4595V178.378H21.6216V159.459ZM54.0541 159.459V145.946H27.027V172.973H54.0541V159.459ZM32.4324 159.459V151.351H48.6486V167.568H32.4324V159.459ZM70.2703 175.676V172.973H64.8649V162.162H70.2703V145.946H75.6757V140.541H64.8649V135.135H43.2432V129.73H48.6486V124.324H37.8378V135.135H32.4324V129.73H21.6216V124.324H32.4324V113.514H27.027V118.919H21.6216V108.108H32.4324V113.514H37.8378V118.919H43.2432V113.514H48.6486V118.919H59.4595V113.514H54.0541V108.108H37.8378V102.703H54.0541V97.2973H37.8378V91.8919H32.4324V97.2973H21.6216V81.0811H27.027V86.4865H59.4595V81.0811H54.0541V75.6757H43.2432V81.0811H37.8378V75.6757H27.027V64.8649H37.8378V75.6757H43.2432V70.2703H54.0541V64.8649H59.4595V70.2703H54.0541V75.6757H59.4595V81.0811H64.8649V70.2703H70.2703V64.8649H64.8649V48.6486H75.6757V54.0541H81.0811V59.4595H75.6757V64.8649H81.0811V97.2973H70.2703V91.8919H64.8649V97.2973H59.4595V102.703H54.0541V108.108H59.4595V113.514H64.8649V118.919H75.6757V113.514H70.2703V108.108H64.8649V102.703H75.6757V113.514H81.0811V102.703H86.4865V113.514H91.8919V97.2973H97.2973V91.8919H102.703V97.2973H97.2973V102.703H102.703V108.108H118.919V102.703H113.514V97.2973H108.108V86.4865H102.703V81.0811H108.108V75.6757H113.514V70.2703H108.108V64.8649H102.703V75.6757H97.2973V70.2703H91.8919V75.6757H86.4865V70.2703H91.8919V64.8649H86.4865V48.6486H81.0811V43.2432H86.4865V48.6486H91.8919V27.027H97.2973V37.8378H108.108V32.4324H102.703V21.6216H113.514V27.027H108.108V32.4324H118.919V27.027H124.324V21.6216H135.135V37.8378H124.324V32.4324H118.919V43.2432H124.324V59.4595H129.73V54.0541H135.135V81.0811H145.946V75.6757H140.541V64.8649H151.351V81.0811H162.162V75.6757H156.757V64.8649H162.162V75.6757H167.568V70.2703H178.378V81.0811H172.973V75.6757H167.568V81.0811H162.162V97.2973H167.568V102.703H162.162V108.108H151.351V113.514H145.946V118.919H135.135V113.514H129.73V108.108H124.324V118.919H129.73V124.324H145.946V129.73H156.757V124.324H151.351V118.919H156.757V113.514H162.162V118.919H167.568V124.324H172.973V113.514H167.568V108.108H178.378V124.324H172.973V135.135H178.378V145.946H172.973V162.162H178.378V167.568H162.162V178.378H145.946V172.973H156.757V167.568H145.946V156.757H140.541V167.568H135.135V172.973H140.541V178.378H129.73V162.162H124.324V172.973H118.919V167.568H113.514V145.946H118.919V162.162H124.324V145.946H129.73V135.135H124.324V129.73H118.919V124.324H124.324V118.919H118.919V113.514H113.514V135.135H118.919V140.541H108.108V151.351H102.703V162.162H108.108V167.568H102.703V172.973H113.514V178.378H102.703V172.973H97.2973V167.568H91.8919V178.378H70.2703V175.676ZM86.4865 167.568V162.162H91.8919V145.946H81.0811V151.351H86.4865V156.757H75.6757V162.162H70.2703V167.568H75.6757V172.973H86.4865V167.568ZM162.162 162.162V156.757H167.568V145.946H172.973V140.541H167.568V124.324H162.162V140.541H167.568V145.946H162.162V151.351H156.757V167.568H162.162V162.162ZM135.135 159.459V156.757H129.73V162.162H135.135V159.459ZM102.703 148.649V145.946H97.2973V151.351H102.703V148.649ZM151.351 143.243V135.135H135.135V151.351H151.351V143.243ZM140.541 143.243V140.541H145.946V145.946H140.541V143.243ZM97.2973 137.838V135.135H108.108V129.73H97.2973V124.324H91.8919V129.73H97.2973V135.135H86.4865V129.73H81.0811V135.135H75.6757V129.73H70.2703V124.324H64.8649V118.919H59.4595V124.324H54.0541V129.73H59.4595V124.324H64.8649V129.73H70.2703V135.135H75.6757V140.541H97.2973V137.838ZM81.0811 121.622V118.919H75.6757V124.324H81.0811V121.622ZM108.108 118.919V113.514H97.2973V118.919H102.703V124.324H108.108V118.919ZM140.541 110.811V108.108H135.135V113.514H140.541V110.811ZM151.351 105.405V102.703H156.757V86.4865H151.351V91.8919H145.946V97.2973H140.541V91.8919H129.73V86.4865H124.324V81.0811H129.73V64.8649H124.324V59.4595H118.919V54.0541H113.514V59.4595H108.108V43.2432H113.514V48.6486H118.919V43.2432H113.514V37.8378H108.108V43.2432H102.703V59.4595H108.108V64.8649H113.514V59.4595H118.919V75.6757H113.514V81.0811H108.108V86.4865H113.514V97.2973H118.919V91.8919H129.73V97.2973H135.135V102.703H145.946V108.108H151.351V105.405ZM145.946 100V97.2973H151.351V102.703H145.946V100ZM59.4595 94.5946V91.8919H64.8649V86.4865H59.4595V91.8919H54.0541V97.2973H59.4595V94.5946ZM75.6757 83.7838V81.0811H70.2703V86.4865H75.6757V83.7838ZM75.6757 56.7568V54.0541H70.2703V59.4595H75.6757V56.7568ZM97.2973 54.0541V48.6486H91.8919V59.4595H97.2973V54.0541ZM129.73 29.7297V27.027H124.324V32.4324H129.73V29.7297ZM172.973 175.676V172.973H178.378V178.378H172.973V175.676ZM172.973 97.2973V91.8919H167.568V86.4865H172.973V91.8919H178.378V102.703H172.973V97.2973ZM21.6216 40.5405V21.6216H59.4595V59.4595H21.6216V40.5405ZM54.0541 40.5405V27.027H27.027V54.0541H54.0541V40.5405ZM32.4324 40.5405V32.4324H48.6486V48.6486H32.4324V40.5405ZM140.541 40.5405V21.6216H178.378V59.4595H140.541V40.5405ZM172.973 40.5405V27.027H145.946V54.0541H172.973V40.5405ZM151.351 40.5405V32.4324H167.568V48.6486H151.351V40.5405ZM64.8649 40.5405V37.8378H70.2703V43.2432H64.8649V40.5405ZM75.6757 35.1351V32.4324H70.2703V21.6216H75.6757V27.027H81.0811V21.6216H86.4865V27.027H81.0811V37.8378H75.6757V35.1351Z" fill="var(--fill-0, #111827)"/>
</g>
</svg>
