<svg xmlns="http://www.w3.org/2000/svg" width="24" height="24" fill="none"><path stroke="#111827" stroke-linecap="round" stroke-linejoin="round" stroke-width="1.5" d="M12 17v4M14.305 7.53l.923-.382M15.228 4.852l-.923-.383M16.852 3.229l-.383-.924M16.852 8.771l-.383.923M19.148 3.229l.383-.924M19.53 9.695l-.382-.924M20.772 4.852l.924-.383M20.772 7.148l.924.383M22 13v2a2 2 0 0 1-2 2H4a2 2 0 0 1-2-2V5a2 2 0 0 1 2-2h7M8 21h8"/><path stroke="#111827" stroke-linecap="round" stroke-linejoin="round" stroke-width="1.5" d="M18 9a3 3 0 1 0 0-6 3 3 0 0 0 0 6"/></svg>