<svg width="24" height="24" viewBox="0 0 24 24" fill="none" xmlns="http://www.w3.org/2000/svg">
<path fill-rule="evenodd" clip-rule="evenodd" d="M21.007 8.27C22.194 9.125 23 10.45 23 12C23 13.55 22.194 14.876 21.007 15.73C21.247 17.172 20.873 18.688 19.78 19.78C18.685 20.875 17.17 21.239 15.734 21.005C14.883 22.196 13.546 23 12 23C10.45 23 9.122 22.193 8.269 21.004C6.831 21.239 5.315 20.876 4.219 19.78C3.124 18.685 2.76 17.169 3.002 15.73C1.816 14.877 1 13.551 1 12C1 10.449 1.816 9.122 3.002 8.27C2.76 6.831 3.124 5.315 4.22 4.22C5.313 3.126 6.83 2.753 8.277 2.993C9.125 1.804 10.453 1 12 1C13.545 1 14.88 1.803 15.732 2.993C17.174 2.753 18.688 3.128 19.78 4.22C20.872 5.312 21.248 6.828 21.007 8.27ZM16.581 8.186C16.6879 8.26229 16.7787 8.35889 16.8483 8.47029C16.9179 8.58169 16.9648 8.7057 16.9864 8.83524C17.0081 8.96478 17.004 9.09731 16.9744 9.22527C16.9448 9.35323 16.8903 9.47411 16.814 9.581L11.814 16.581C11.7296 16.6992 11.6205 16.7976 11.4942 16.8694C11.3679 16.9411 11.2275 16.9845 11.0827 16.9965C10.9379 17.0085 10.7923 16.9888 10.6559 16.9388C10.5196 16.8888 10.3957 16.8097 10.293 16.707L7.293 13.707C7.11084 13.5184 7.01005 13.2658 7.01233 13.0036C7.0146 12.7414 7.11977 12.4906 7.30518 12.3052C7.49059 12.1198 7.7414 12.0146 8.0036 12.0123C8.2658 12.01 8.5184 12.1108 8.707 12.293L10.872 14.458L15.186 8.418C15.3402 8.20225 15.5738 8.05661 15.8355 8.0131C16.0971 7.96959 16.3652 8.03179 16.581 8.186Z" fill="#74A3D3"/>
</svg>
